#!OML:ASF H:\Dans Jumps\Project 1\Capture day 1\Session 1\subject.ASF
:FULLY-SPECIFIED
:DEGREES
568
root 0.123294 18.9007 -11.0773 13.2795 0.119514 -0.768784
lowerback 12.9739 0.289565 -1.09585
upperback 7.09487 0.280648 1.56378
thorax 0.155713 0.080387 2.20849
lowerneck -12.6779 0.300599 -1.68299
upperneck 19.105 0.472614 1.42488
head 7.99069 0.241326 0.801889
rclavicle -1.39149e-015 -2.18663e-015
rhumerus -16.011 -0.283467 -86.4313
rradius 38.3438
rwrist 22.4842
rhand -22.6676 -27.3043
rfingers 7.12502
rthumb 3.76409 -57.2508
lclavicle -1.39149e-015 -2.18663e-015
lhumerus -18.2032 -9.17524 91.1644
lradius 32.7341
lwrist 24.811
lhand -31.603 -9.36547
lfingers 7.12502
lthumb -4.86539 20.5587
rfemur -39.6895 -4.65407 19.978
rtibia 37.9619
rfoot 4.66457 -2.5479
rtoes 13.3372
lfemur -39.1927 5.15598 -17.3043
ltibia 37.5043
lfoot 7.29397 1.69878
ltoes -0.722512
569
root 0.11588 18.8266 -10.9823 13.2894 0.158206 -0.761833
lowerback 12.726 0.273047 -1.08352
upperback 7.06844 0.261586 1.55672
thorax 0.261561 0.0707619 2.19643
lowerneck -12.6586 0.304768 -1.67682
upperneck 19.1962 0.481954 1.39767
head 8.01754 0.243221 0.793317
rclavicle 2.98177e-015 -9.93923e-016
rhumerus -16.2526 -0.58275 -86.4022
rradius 38.0146
rwrist 22.488
rhand -22.6741 -27.3949
rfingers 7.12502
rthumb 3.75778 -57.3415
lclavicle 2.98177e-015 -9.93923e-016
lhumerus -18.2859 -8.86271 91.1188
lradius 32.1307
lwrist 24.6592
lhand -31.4722 -9.15005
lfingers 7.12502
lthumb -4.73912 20.7769
rfemur -39.7896 -4.61252 19.9598
rtibia 36.998
rfoot 4.31652 -2.13596
rtoes 12.0421
lfemur -39.1397 5.31472 -17.4452
ltibia 35.9543
lfoot 6.97984 1.25427
ltoes -2.55451
570
root 0.108216 18.7381 -10.8848 13.2441 0.209226 -0.75352
lowerback 12.4527 0.254323 -1.07177
upperback 7.05288 0.239579 1.55146
thorax 0.392755 0.0593375 2.18685
lowerneck -12.6007 0.308486 -1.68056
upperneck 19.3275 0.489769 1.38118
head 8.05077 0.244512 0.789874
rclavicle 4.07509e-015 1.49089e-014
rhumerus -16.4869 -0.855518 -86.3642
rradius 37.6276
rwrist 22.4726
rhand -22.5989 -27.5048
rfingers 7.12502
rthumb 3.83047 -57.4502
lclavicle 4.07509e-015 1.49089e-014
lhumerus -18.3423 -8.5586 91.0647
lradius 31.4595
lwrist 24.4366
lhand -31.2966 -8.92176
lfingers 7.12502
lthumb -4.56954 21.009
rfemur -39.8196 -4.58614 19.9353
rtibia 36.2334
rfoot 3.96521 -1.87019
rtoes 10.7727
lfemur -39.0276 5.46423 -17.5821
ltibia 34.5649
lfoot 6.7281 0.918424
ltoes -4.23989
571
root 0.100625 18.6356 -10.7845 13.1235 0.267873 -0.739331
lowerback 12.167 0.234378 -1.06202
upperback 7.05485 0.215626 1.54491
thorax 0.549367 0.0465698 2.17721
lowerneck -12.5383 0.312972 -1.67905
upperneck 19.5244 0.49777 1.36197
head 8.10511 0.245776 0.785064
rclavicle -1.19271e-015 -1.0138e-014
rhumerus -16.7118 -1.09597 -86.3187
rradius 37.1908
rwrist 22.4505
rhand -22.4693 -27.6267
rfingers 7.12502
rthumb 3.95561 -57.5697
lclavicle -1.19271e-015 -1.0138e-014
lhumerus -18.371 -8.26377 91.0017
lradius 30.7301
lwrist 24.146
lhand -31.0739 -8.64289
lfingers 7.12502
lthumb -4.35446 21.2923
rfemur -39.7489 -4.56458 19.8904
rtibia 35.6622
rfoot 3.6089 -1.67185
rtoes 9.4977
lfemur -38.8341 5.58186 -17.7065
ltibia 33.3707
lfoot 6.54105 0.677823
ltoes -5.79125
572
root 0.0930222 18.5192 -10.6816 12.916 0.335373 -0.730076
lowerback 11.8792 0.213603 -1.0424
upperback 7.07555 0.191354 1.53819
thorax 0.727038 0.0336276 2.16177
lowerneck -12.4497 0.315025 -1.68086
upperneck 19.7633 0.4998 1.35593
head 8.16888 0.24508 0.784719
rclavicle -5.96354e-016 7.95139e-015
rhumerus -16.9285 -1.30988 -86.2681
rradius 36.7027
rwrist 22.4389
rhand -22.2905 -27.7625
rfingers 7.12502
rthumb 4.12825 -57.7022
lclavicle -5.96354e-016 7.95139e-015
lhumerus -18.3687 -7.99646 90.9286
lradius 29.9419
lwrist 23.8067
lhand -30.8079 -8.29819
lfingers 7.12502
lthumb -4.0976 21.6421
rfemur -39.5624 -4.52646 19.828
rtibia 35.2765
rfoot 3.26258 -1.47687
rtoes 8.2569
lfemur -38.558 5.65852 -17.7972
ltibia 32.4133
lfoot 6.41955 0.512474
ltoes -7.21776
573
root 0.0855935 18.3887 -10.5759 12.6128 0.408616 -0.715266
lowerback 11.6035 0.193332 -1.02266
upperback 7.11175 0.167477 1.52933
thorax 0.914682 0.0207643 2.14391
lowerneck -12.3447 0.314851 -1.67406
upperneck 20.0487 0.497041 1.34749
head 8.24554 0.24235 0.781862
rclavicle -2.5842e-015 -7.35503e-015
rhumerus -17.1547 -1.49799 -86.2077
rradius 36.1803
rwrist 22.458
rhand -22.117 -27.9
rfingers 7.12502
rthumb 4.29583 -57.8364
lclavicle -2.5842e-015 -7.35503e-015
lhumerus -18.3447 -7.75126 90.8484
lradius 29.1031
lwrist 23.4266
lhand -30.5074 -7.87929
lfingers 7.12502
lthumb -3.80745 22.0664
rfemur -39.2556 -4.48136 19.7421
rtibia 35.0834
rfoot 2.90034 -1.17549
rtoes 7.38256
lfemur -38.202 5.70503 -17.875
ltibia 31.747
lfoot 6.31537 0.341668
ltoes -8.00504
574
root 0.0785395 18.2442 -10.4671 12.2172 0.481147 -0.702856
lowerback 11.3468 0.174876 -0.995777
upperback 7.15679 0.14637 1.52014
thorax 1.10142 0.0094947 2.12132
lowerneck -12.2354 0.31139 -1.6637
upperneck 20.382 0.488731 1.33944
head 8.33779 0.237174 0.778243
rclavicle 9.93923e-017 0
rhumerus -17.3953 -1.66729 -86.1359
rradius 35.6192
rwrist 22.532
rhand -21.98 -28.0027
rfingers 7.12502
rthumb 4.42806 -57.9364
lclavicle 9.93923e-017 0
lhumerus -18.3096 -7.50901 90.7628
lradius 28.2197
lwrist 22.9952
lhand -30.1642 -7.42288
lfingers 7.12502
lthumb -3.47606 22.5285
rfemur -38.8372 -4.45562 19.6629
rtibia 35.1091
rfoot 2.3589 -0.718402
rtoes 6.96812
lfemur -37.786 5.77707 -17.962
ltibia 31.4459
lfoot 5.94064 0.0909293
ltoes -8.22947
575
root 0.0718245 18.0867 -10.3572 11.7366 0.556178 -0.6951
lowerback 11.1243 0.158153 -0.962129
upperback 7.20607 0.127852 1.51525
thorax 1.27417 -0.000212084 2.09907
lowerneck -12.1226 0.305295 -1.65505
upperneck 20.7471 0.477392 1.32985
head 8.44052 0.230219 0.77427
rclavicle -1.2921e-015 -1.98785e-016
rhumerus -17.6514 -1.82517 -86.044
rradius 35.0281
rwrist 22.6855
rhand -21.8825 -28.0765
rfingers 7.12502
rthumb 4.52226 -58.0082
lclavicle -1.2921e-015 -1.98785e-016
lhumerus -18.266 -7.24019 90.675
lradius 27.303
lwrist 22.4968
lhand -29.8 -6.98411
lfingers 7.12502
lthumb -3.12426 22.9727
rfemur -38.324 -4.47168 19.6096
rtibia 35.3951
rfoot 1.48641 -0.136867
rtoes 7.03986
lfemur -37.332 5.90989 -18.0756
ltibia 31.5857
lfoot 5.14972 -0.264415
ltoes -7.64984
576
root 0.0653256 17.9182 -10.2486 11.19 0.644231 -0.701943
lowerback 10.9565 0.14008 -0.911731
upperback 7.24827 0.108737 1.51992
thorax 1.41006 -0.00944035 2.07735
lowerneck -12.0282 0.300249 -1.63967
upperneck 21.1453 0.469183 1.30757
head 8.55829 0.223939 0.765527
rclavicle 1.59028e-015 4.57205e-015
rhumerus -17.9146 -1.99285 -85.9285
rradius 34.403
rwrist 22.9444
rhand -21.807 -28.1264
rfingers 7.12502
rthumb 4.59517 -58.0565
lclavicle 1.59028e-015 4.57205e-015
lhumerus -18.2112 -6.90884 90.5828
lradius 26.3395
lwrist 21.8847
lhand -29.4165 -6.62971
lfingers 7.12502
lthumb -2.75399 23.3323
rfemur -37.7569 -4.53921 19.6005
rtibia 35.9796
rfoot 0.148673 0.538671
rtoes 7.50417
lfemur -36.8904 6.11405 -18.2085
ltibia 32.223
lfoot 3.78002 -0.701337
ltoes -6.4474
577
root 0.0590223 17.7423 -10.1444 10.5927 0.747194 -0.72503
lowerback 10.856 0.120584 -0.845158
upperback 7.28437 0.0888265 1.53601
thorax 1.50321 -0.0183104 2.05844
lowerneck -11.9651 0.295927 -1.62157
upperneck 21.557 0.464628 1.27394
head 8.68694 0.218469 0.753082
rclavicle 1.39149e-015 -5.96354e-015
rhumerus -18.1618 -2.19887 -85.7853
rradius 33.7426
rwrist 23.3303
rhand -21.7476 -28.1399
rfingers 7.12502
rthumb 4.6525 -58.0688
lclavicle 1.39149e-015 -5.96354e-015
lhumerus -18.1237 -6.47717 90.4822
lradius 25.3347
lwrist 21.1389
lhand -29.0188 -6.34877
lfingers 7.12502
lthumb -2.36988 23.6178
rfemur -37.1861 -4.65116 19.6365
rtibia 36.8804
rfoot -1.74143 1.13315
rtoes 8.13991
lfemur -36.5075 6.35719 -18.3386
ltibia 33.3602
lfoot 1.77104 -1.02605
ltoes -4.96493
578
root 0.0524862 17.5622 -10.0478 9.9626 0.870523 -0.774028
lowerback 10.8372 0.0997203 -0.757316
upperback 7.31824 0.0686868 1.56669
thorax 1.5497 -0.0264483 2.04278
lowerneck -11.9346 0.288612 -1.59588
upperneck 21.9478 0.456515 1.23452
head 8.81524 0.211498 0.736955
rclavicle -1.88845e-015 -6.16232e-015
rhumerus -18.3562 -2.48707 -85.6148
rradius 33.0383
rwrist 23.8674
rhand -21.6762 -28.1221
rfingers 7.12502
rthumb 4.72141 -58.0495
lclavicle -1.88845e-015 -6.16232e-015
lhumerus -17.9778 -5.90643 90.3647
lradius 24.2847
lwrist 20.2286
lhand -28.6247 -6.20056
lfingers 7.12502
lthumb -1.98924 23.7699
rfemur -36.6684 -4.77416 19.7173
rtibia 38.08
rfoot -4.11123 1.46418
rtoes 8.73521
lfemur -36.2355 6.59052 -18.4273
ltibia 34.9348
lfoot -0.707233 -1.05934
ltoes -3.45036
579
root 0.0454206 17.3815 -9.96057 9.31078 1.00785 -0.838015
lowerback 10.9203 0.0796905 -0.663771
upperback 7.35039 0.0502075 1.60701
thorax 1.53918 -0.0333112 2.03392
lowerneck -11.9515 0.280362 -1.5574
upperneck 22.3082 0.446531 1.19043
head 8.94261 0.204427 0.716792
rclavicle 1.39149e-015 -2.98177e-015
rhumerus -18.489 -2.87803 -85.421
rradius 32.3027
rwrist 24.5397
rhand -21.5901 -28.099
rfingers 7.12502
rthumb 4.80454 -58.0245
lclavicle 1.39149e-015 -2.98177e-015
lhumerus -17.7633 -5.16351 90.2213
lradius 23.204
lwrist 19.1605
lhand -28.2441 -6.1325
lfingers 7.12502
lthumb -1.62168 23.8411
rfemur -36.248 -4.90092 19.8331
rtibia 39.5339
rfoot -6.77968 1.42607
rtoes 9.12598
lfemur -36.0957 6.77937 -18.4706
ltibia 36.8259
lfoot -3.40065 -0.703501
ltoes -2.06932
580
root 0.0371119 17.2046 -9.88377 8.66431 1.14993 -0.923172
lowerback 11.0981 0.0648256 -0.567041
upperback 7.38343 0.0392415 1.65694
thorax 1.47812 -0.0361934 2.03277
lowerneck -12.0215 0.266157 -1.52201
upperneck 22.6126 0.427077 1.15927
head 9.06125 0.19436 0.700251
rclavicle 3.37934e-015 1.0138e-014
rhumerus -18.5511 -3.37871 -85.2096
rradius 31.5511
rwrist 25.3154
rhand -21.4937 -28.089
rfingers 7.12502
rthumb 4.89767 -58.0123
lclavicle 3.37934e-015 1.0138e-014
lhumerus -17.4692 -4.23144 90.0492
lradius 22.1079
lwrist 17.9771
lhand -27.9183 -6.18195
lfingers 7.12502
lthumb -1.30699 23.7938
rfemur -35.9741 -5.0146 19.9926
rtibia 41.1798
rfoot -9.47879 0.999229
rtoes 9.03
lfemur -36.1104 6.91248 -18.4571
ltibia 38.8945
lfoot -6.04579 0.021862
ltoes -1.15065
